<svg width="12" height="13" viewBox="0 0 12 13" fill="none" xmlns="http://www.w3.org/2000/svg">
<path d="M6.35645 12.6687L6.34925 12.6699L6.30665 12.6908L6.29465 12.6931L6.28625 12.6908L6.24365 12.6693C6.23725 12.6677 6.23245 12.6689 6.22925 12.6729L6.22685 12.6788L6.21665 12.9339L6.21965 12.9458L6.22565 12.9536L6.28805 12.9977L6.29705 13.0001L6.30425 12.9977L6.36665 12.9536L6.37385 12.944L6.37625 12.9339L6.36605 12.6794C6.36445 12.6731 6.36125 12.6695 6.35645 12.6687ZM6.51485 12.6014L6.50645 12.6026L6.39605 12.658L6.39005 12.6639L6.38825 12.6705L6.39905 12.9268L6.40205 12.9339L6.40685 12.9387L6.52745 12.9935C6.53505 12.9955 6.54085 12.9939 6.54485 12.9887L6.54725 12.9804L6.52685 12.6145C6.52485 12.6069 6.52085 12.6026 6.51485 12.6014ZM6.08585 12.6026C6.08321 12.601 6.08005 12.6004 6.07703 12.6011C6.07401 12.6018 6.07137 12.6036 6.06965 12.6061L6.06605 12.6145L6.04565 12.9804C6.04605 12.9875 6.04945 12.9923 6.05585 12.9947L6.06485 12.9935L6.18545 12.9381L6.19145 12.9333L6.19325 12.9268L6.20405 12.6705L6.20225 12.6633L6.19625 12.6574L6.08585 12.6026Z" fill="#FF9500"/>
<path d="M6 0C9.3138 0 12 2.66806 12 5.95949C12 9.25092 9.3138 11.919 6 11.919C2.6862 11.919 0 9.25092 0 5.95949C0 2.66806 2.6862 0 6 0ZM6 1.1919C4.72696 1.1919 3.50606 1.6942 2.60589 2.58829C1.70571 3.48239 1.2 4.69505 1.2 5.95949C1.2 7.22394 1.70571 8.43659 2.60589 9.33069C3.50606 10.2248 4.72696 10.7271 6 10.7271C7.27304 10.7271 8.49394 10.2248 9.39411 9.33069C10.2943 8.43659 10.8 7.22394 10.8 5.95949C10.8 4.69505 10.2943 3.48239 9.39411 2.58829C8.49394 1.6942 7.27304 1.1919 6 1.1919ZM6 6.55544C6.7608 6.55544 7.4562 6.83733 7.9848 7.30038C8.10415 7.40501 8.17676 7.55245 8.18666 7.71026C8.19656 7.86806 8.14294 8.02332 8.0376 8.14186C7.93226 8.2604 7.78382 8.33252 7.62494 8.34236C7.46605 8.35219 7.30975 8.29893 7.1904 8.1943C6.86163 7.90631 6.43836 7.74739 6 7.74734C5.5434 7.74734 5.127 7.9154 4.8096 8.1943C4.75051 8.24607 4.68172 8.28577 4.60718 8.31114C4.53264 8.33651 4.45379 8.34704 4.37515 8.34215C4.29651 8.33725 4.21961 8.31701 4.14884 8.2826C4.07807 8.24818 4.01482 8.20026 3.9627 8.14156C3.91058 8.08286 3.87061 8.01455 3.84507 7.94051C3.81953 7.86647 3.80892 7.78816 3.81385 7.71005C3.81878 7.63194 3.83915 7.55555 3.8738 7.48526C3.90846 7.41497 3.95671 7.35215 4.0158 7.30038C4.5638 6.82035 5.26934 6.55547 6 6.55544ZM3.804 3.61145L3.8682 3.63887L5.0682 4.23482C5.20519 4.30275 5.31085 4.42014 5.36354 4.56293C5.41622 4.70573 5.41195 4.86313 5.3516 5.0029C5.29125 5.14267 5.17938 5.25423 5.03891 5.31475C4.89843 5.37526 4.73998 5.38014 4.596 5.32838L4.5318 5.30037L3.3318 4.70442C3.20065 4.63883 3.09827 4.52775 3.04404 4.39221C2.98982 4.25668 2.98751 4.10609 3.03757 3.96898C3.08763 3.83187 3.18656 3.71775 3.31565 3.64824C3.44474 3.57872 3.595 3.55864 3.738 3.59179L3.804 3.61086V3.61145ZM8.1318 3.63887C8.26861 3.57138 8.42618 3.55827 8.57239 3.6022C8.7186 3.64613 8.84244 3.74379 8.91865 3.87528C8.99486 4.00676 9.01772 4.16217 8.98255 4.30982C8.94739 4.45746 8.85685 4.58623 8.7294 4.66986L8.6682 4.70442L7.4682 5.30037C7.33139 5.36786 7.17382 5.38097 7.02761 5.33704C6.8814 5.29311 6.75756 5.19545 6.68135 5.06396C6.60514 4.93247 6.58228 4.77707 6.61745 4.62942C6.65261 4.48178 6.74315 4.35301 6.8706 4.26938L6.9318 4.23482L8.1318 3.63887Z" fill="#FF9500"/>
</svg>
