<svg width="24" height="24" viewBox="0 0 24 24" fill="none" xmlns="http://www.w3.org/2000/svg">
<g clip-path="url(#clip0_157_461)">
<path fill-rule="evenodd" clip-rule="evenodd" d="M13.0599 7.94011C12.7787 7.65921 12.3974 7.50143 11.9999 7.50143C11.6024 7.50143 11.2212 7.65921 10.9399 7.94011L5.2819 13.5961C5.00064 13.8775 4.84268 14.2591 4.84277 14.657C4.84287 15.0548 5.00101 15.4363 5.2824 15.7176C5.56379 15.9989 5.9454 16.1568 6.34325 16.1567C6.74111 16.1566 7.12264 15.9985 7.4039 15.7171L11.9999 11.1211L16.5959 15.7171C16.8787 15.9905 17.2575 16.1419 17.6508 16.1386C18.0441 16.1354 18.4204 15.9778 18.6986 15.6998C18.9769 15.4219 19.1348 15.0457 19.1384 14.6524C19.142 14.2591 18.991 13.8801 18.7179 13.5971L13.0609 7.93911L13.0599 7.94011Z" fill="black"/>
</g>
<defs>
<clipPath id="clip0_157_461">
<rect width="24" height="24" fill="white"/>
</clipPath>
</defs>
</svg>
