<svg width="32" height="32" viewBox="0 0 32 32" fill="none" xmlns="http://www.w3.org/2000/svg">
<g clip-path="url(#clip0_159_1241)">
<path d="M6.4 19.2H25.6V16H6.4V19.2ZM6.4 14.4H25.6V11.2H6.4V14.4ZM6.4 9.6H25.6V6.4H6.4V9.6ZM32 32L25.6 25.6H3.2C2.32 25.6 1.56693 25.2869 0.9408 24.6608C0.314667 24.0347 0.00106667 23.2811 0 22.4V3.2C0 2.32 0.3136 1.56693 0.9408 0.9408C1.568 0.314667 2.32107 0.00106667 3.2 0H28.8C29.68 0 30.4336 0.3136 31.0608 0.9408C31.688 1.568 32.0011 2.32107 32 3.2V32ZM3.2 22.4H26.96L28.8 24.2V3.2H3.2V22.4Z" fill="#71717A"/>
</g>
<defs>
<clipPath id="clip0_159_1241">
<rect width="32" height="32" fill="white"/>
</clipPath>
</defs>
</svg>
