<svg width="14" height="14" viewBox="0 0 14 14" fill="none" xmlns="http://www.w3.org/2000/svg">
<path d="M7 4.66675C7 4.66675 7 4.66675 6.55667 4.08341C6.04333 3.40675 5.285 2.91675 4.375 2.91675C2.9225 2.91675 1.75 4.08925 1.75 5.54175C1.75 6.08425 1.91333 6.58591 2.19333 7.00008C2.66583 7.70591 7 12.2501 7 12.2501M7 4.66675C7 4.66675 7 4.66675 7.44333 4.08341C7.95667 3.40675 8.715 2.91675 9.625 2.91675C11.0775 2.91675 12.25 4.08925 12.25 5.54175C12.25 6.08425 12.0867 6.58591 11.8067 7.00008C11.3342 7.70591 7 12.2501 7 12.2501" stroke="#FF2D55" stroke-width="2" stroke-linecap="round" stroke-linejoin="round"/>
</svg>
