<svg width="14" height="14" viewBox="0 0 14 14" fill="none" xmlns="http://www.w3.org/2000/svg">
<path d="M1 7H1.66667M7 1V1.66667M12.3333 7H13M2.73333 2.73333L3.2 3.2M11.2667 2.73333L10.8 3.2M5.46667 10.3333H8.53333M5 9.66667C4.44031 9.2469 4.02689 8.66168 3.81829 7.99389C3.60969 7.32611 3.61649 6.60961 3.83772 5.94591C4.05896 5.2822 4.48341 4.70493 5.05097 4.29586C5.61852 3.88679 6.30039 3.66667 7 3.66667C7.69961 3.66667 8.38148 3.88679 8.94903 4.29586C9.51659 4.70493 9.94104 5.2822 10.1623 5.94591C10.3835 6.60961 10.3903 7.32611 10.1817 7.99389C9.97311 8.66168 9.55969 9.2469 9 9.66667C8.73971 9.92432 8.54373 10.2396 8.42791 10.5871C8.3121 10.9345 8.2797 11.3044 8.33333 11.6667C8.33333 12.0203 8.19286 12.3594 7.94281 12.6095C7.69276 12.8595 7.35362 13 7 13C6.64638 13 6.30724 12.8595 6.05719 12.6095C5.80714 12.3594 5.66667 12.0203 5.66667 11.6667C5.7203 11.3044 5.6879 10.9345 5.57209 10.5871C5.45627 10.2396 5.26029 9.92432 5 9.66667Z" stroke="#FFCC00" stroke-width="2" stroke-linecap="round" stroke-linejoin="round"/>
</svg>
