<svg width="24" height="24" viewBox="0 0 24 24" fill="none" xmlns="http://www.w3.org/2000/svg">
<path d="M6 0.5H18C21.0376 0.5 23.5 2.96243 23.5 6V18C23.5 21.0376 21.0376 23.5 18 23.5H6C2.96243 23.5 0.5 21.0376 0.5 18V6C0.5 2.96243 2.96243 0.5 6 0.5Z" stroke="#E4E4E7"/>
<path d="M12 16.1667C12.2361 16.1667 12.4342 16.0867 12.5942 15.9267C12.7542 15.7667 12.8339 15.5689 12.8333 15.3333C12.8328 15.0978 12.7528 14.9 12.5933 14.74C12.4339 14.58 12.2361 14.5 12 14.5C11.7639 14.5 11.5661 14.58 11.4067 14.74C11.2472 14.9 11.1672 15.0978 11.1667 15.3333C11.1661 15.5689 11.2461 15.7669 11.4067 15.9275C11.5672 16.0881 11.765 16.1678 12 16.1667ZM12 12.8333C12.2361 12.8333 12.4342 12.7533 12.5942 12.5933C12.7542 12.4333 12.8339 12.2356 12.8333 12V8.66667C12.8333 8.43056 12.7533 8.23278 12.5933 8.07333C12.4333 7.91389 12.2356 7.83389 12 7.83333C11.7644 7.83278 11.5667 7.91278 11.4067 8.07333C11.2467 8.23389 11.1667 8.43167 11.1667 8.66667V12C11.1667 12.2361 11.2467 12.4342 11.4067 12.5942C11.5667 12.7542 11.7644 12.8339 12 12.8333ZM9.5625 19.5C9.34028 19.5 9.12861 19.4583 8.9275 19.375C8.72639 19.2917 8.54917 19.1736 8.39583 19.0208L4.97917 15.6042C4.82639 15.4514 4.70833 15.2742 4.625 15.0725C4.54167 14.8708 4.5 14.6594 4.5 14.4383V9.56333C4.5 9.34111 4.54167 9.12944 4.625 8.92833C4.70833 8.72722 4.82639 8.55 4.97917 8.39667L8.39583 4.98C8.54861 4.82722 8.72583 4.70917 8.9275 4.62583C9.12917 4.5425 9.34083 4.50056 9.5625 4.5H14.4375C14.6597 4.5 14.8717 4.54167 15.0733 4.625C15.275 4.70833 15.4519 4.82639 15.6042 4.97917L19.0208 8.39583C19.1736 8.54861 19.2917 8.72583 19.375 8.9275C19.4583 9.12917 19.5 9.34083 19.5 9.5625V14.4375C19.5 14.6597 19.4583 14.8717 19.375 15.0733C19.2917 15.275 19.1736 15.4519 19.0208 15.6042L15.6042 19.0208C15.4514 19.1736 15.2742 19.2917 15.0725 19.375C14.8708 19.4583 14.6592 19.5 14.4375 19.5H9.5625ZM9.58333 17.8333H14.4167L17.8333 14.4167V9.58333L14.4167 6.16667H9.58333L6.16667 9.58333V14.4167L9.58333 17.8333Z" fill="#71717A"/>
</svg>
