<svg width="13" height="13" viewBox="0 0 13 13" fill="none" xmlns="http://www.w3.org/2000/svg">
<path d="M4.1081 10.533L6.49968 9.02262L8.89125 10.5529L8.26489 7.69109L10.3718 5.78322L7.60056 5.52486L6.49968 2.82205L5.39879 5.50499L2.6276 5.76335L4.73447 7.69109L4.1081 10.533ZM6.49968 10.8907L3.34887 12.8781C3.20968 12.9708 3.06416 13.0106 2.91231 12.9973C2.76047 12.9841 2.6276 12.9311 2.51372 12.8384C2.39983 12.7456 2.31126 12.6298 2.24799 12.491C2.18472 12.3521 2.17206 12.1963 2.21003 12.0235L3.04518 8.26742L0.255007 5.74347C0.128469 5.62423 0.0495087 5.4883 0.0181272 5.33567C-0.0132543 5.18304 -0.00389049 5.03412 0.0462187 4.88891C0.0963279 4.7437 0.172251 4.62446 0.273988 4.53118C0.375725 4.43791 0.514917 4.37829 0.691564 4.35232L4.37383 4.01447L5.79739 0.476967C5.86066 0.317978 5.95885 0.198736 6.09197 0.119242C6.22509 0.0397471 6.36099 0 6.49968 0C6.63836 0 6.77426 0.0397471 6.90738 0.119242C7.0405 0.198736 7.1387 0.317978 7.20196 0.476967L8.62552 4.01447L12.3078 4.35232C12.4849 4.37882 12.6241 4.43844 12.7254 4.53118C12.8266 4.62393 12.9025 4.74317 12.9531 4.88891C13.0037 5.03465 13.0134 5.18383 12.982 5.33646C12.9506 5.48909 12.8714 5.62476 12.7443 5.74347L9.95417 8.26742L10.7893 12.0235C10.8273 12.1958 10.8146 12.3516 10.7514 12.491C10.6881 12.6303 10.5995 12.7461 10.4856 12.8384C10.3718 12.9306 10.2389 12.9836 10.087 12.9973C9.93519 13.0111 9.78967 12.9714 9.65048 12.8781L6.49968 10.8907Z" fill="#34C759"/>
</svg>
