<?xml version="1.0" encoding="utf-8"?>
<!-- Svg Vector Icons : http://www.onlinewebfonts.com/icon -->
<!DOCTYPE svg PUBLIC "-//W3C//DTD SVG 1.1//EN" "http://www.w3.org/Graphics/SVG/1.1/DTD/svg11.dtd">
<svg version="1.1" xmlns="http://www.w3.org/2000/svg" xmlns:xlink="http://www.w3.org/1999/xlink" x="0px" y="0px" viewBox="0 0 256 256" enable-background="new 0 0 256 256" xml:space="preserve">
<metadata> Svg Vector Icons : http://www.onlinewebfonts.com/icon </metadata>
<g><g><g><g id="Layer_2_18_"><g><path fill="#000000" d="M163.2,132.4c2.7-0.8,9.1-2.6,12.1-11.4l6.1-18l2.5,0.8c1.1,0.4,2.4-0.2,2.7-1.3l3.3-9.7c0.4-1.1-0.2-2.4-1.3-2.7l-79.4-27c-1.1-0.4-2.4,0.2-2.7,1.3l-3.3,9.7c-0.4,1.1,0.2,2.4,1.3,2.7l2.5,0.8l-6.2,18.3c-3,8.6-1,11.6,2.7,16l16.1,19.2l-1.8,5.3c-6.2,1.3-22.2,4.8-24.4,5.5c-2.7,0.8-9.1,2.6-12.1,11.4L76,168.9l-2.5-0.8c-1.1-0.4-2.4,0.2-2.7,1.3l-3.3,9.7c-0.4,1.1,0.2,2.4,1.3,2.7l79.4,27c1.1,0.4,2.4-0.2,2.7-1.3l3.3-9.7c0.4-1.1-0.2-2.4-1.3-2.7l-2.5-0.8l5.4-15.8c3-8.6,1-11.6-2.7-16l-16.1-19.2l1.8-5.3C145,136.6,161.1,133.1,163.2,132.4z M129.7,146.5l17.5,20.9c1.3,1.6,2.1,2.5,2.2,3.3c0.2,1-0.1,2.7-0.9,5.2l-5.4,15.8l-59.7-20.3l5.3-15.5c1.7-4.9,4.7-5.8,6.9-6.4c1.7-0.5,16.5-3.7,26-5.8c1.3-0.3,2.4-1.3,2.9-2.5l3.2-9.4c0.4-1.3,0.2-2.7-0.7-3.8l-17.4-20.9l-0.1-0.1c-1.3-1.6-2.1-2.5-2.2-3.3c-0.2-1,0.1-2.7,0.9-5.2l6.2-18.3l59.7,20.3l-6.1,18c-1.7,4.9-4.7,5.8-6.9,6.4c-1.7,0.5-16.5,3.7-26,5.8c-1.3,0.3-2.4,1.3-2.9,2.6l-3.2,9.4C128.5,144,128.8,145.4,129.7,146.5z"/><path fill="#000000" d="M176.8,220.8c-1.8,1-3.5,1.9-5.3,2.8c-0.3,0.2-0.6,0.3-0.8,0.5c-0.3,0.1-0.6,0.2-0.9,0.4c-7.8,3.6-16,6.2-24.3,7.7c-0.1,0-0.2,0-0.3,0.1c-2,0.4-4,0.6-6,0.9c0,0-0.1,0-0.1,0c-3.7,0.4-7.4,0.6-11.1,0.6c-43.1,0-79.8-27.6-93.4-66.1c-0.2-0.6-0.4-1.2-0.6-1.8c-3.3-9.8-5-20.3-5-31.2c0-10.9,1.8-21.4,5.1-31.2c0.1-0.2,0.2-0.4,0.2-0.6c0.2-0.6,0.4-1.1,0.6-1.7c0.1-0.3,0.2-0.5,0.3-0.8c11.3-30.4,37.2-53.8,69.1-61.7c0,0,0.1,0,0.1,0c0.5-0.1,0.9-0.2,1.4-0.3c0.1,0,0.1,0,0.2-0.1c7-1.6,14.2-2.4,21.6-2.5l0.1,10.2c0,3.2,2,4.1,4.4,2l21.5-18.2c2.4-2,2.4-5.4,0-7.4L131.5,4.4c-2.4-2-4.4-1-4.4,2.1l0.1,10.2c-31.2,0.2-60.5,12.4-82.7,34.6c-2.2,2.2-4.2,4.4-6.3,6.7c0,0,0,0,0,0.1c-0.1,0.1-0.2,0.2-0.2,0.3c-17.4,20.4-27.2,45.9-28,72.9c0,0.2-0.1,0.4-0.1,0.6c0,0.9,0,1.8,0,2.7c0,1.5,0,3,0.1,4.5c0,0.2,0,0.4,0.1,0.5c1,24.6,9.5,47.9,24.4,67.2c0.1,0.1,0.1,0.1,0.2,0.2c1.5,1.9,3,3.7,4.6,5.5c0.1,0.1,0.2,0.2,0.3,0.3c1.6,1.8,3.3,3.6,5,5.3c17.5,17.5,39.6,28.8,63.5,32.9c0.1,0,0.2,0,0.2,0c0.1,0,0.1,0,0.2,0c6.4,1.1,12.9,1.6,19.5,1.6c17.4,0,34.1-3.7,49.8-11c0.3-0.2,0.7-0.3,1-0.5c0.4-0.1,0.7-0.3,1-0.4c2.1-1,4.3-2.2,6.4-3.4c4.6-2.6,6.2-8.4,3.6-12.9C187.2,219.9,181.4,218.3,176.8,220.8z"/><path fill="#000000" d="M210.2,79.4c1.8,2.7,4.8,4.2,7.9,4.2c1.8,0,3.7-0.5,5.3-1.6c4.4-2.9,5.5-8.8,2.6-13.2c-1.3-2-2.7-3.9-4.2-5.9c-3.2-4.2-9.1-5-13.3-1.8c-4.2,3.2-5,9.1-1.8,13.3C207.9,76.1,209.1,77.8,210.2,79.4z"/><path fill="#000000" d="M222.3,104.3c0.6,1.9,1.2,3.9,1.7,5.8c1.1,4.3,5,7.1,9.2,7.1c0.8,0,1.6-0.1,2.3-0.3c5.1-1.3,8.1-6.5,6.8-11.5c-0.6-2.3-1.2-4.6-2-6.9c-1.6-5-6.9-7.7-11.9-6.1C223.4,94,220.7,99.4,222.3,104.3z"/><path fill="#000000" d="M216.2,198.5c-4-3.4-9.9-3-13.4,1c-1.3,1.5-2.7,3-4.1,4.5c-3.7,3.7-3.6,9.7,0.2,13.4c1.9,1.8,4.2,2.7,6.6,2.7c2.5,0,4.9-1,6.8-2.8c1.7-1.7,3.3-3.5,4.9-5.3C220.6,208,220.2,202,216.2,198.5z"/><path fill="#000000" d="M236.8,128.5c-5.2-0.2-9.6,4-9.8,9.2c-0.1,2-0.2,4-0.4,6c-0.5,5.2,3.4,9.8,8.6,10.3c0.3,0,0.6,0.1,0.9,0.1c4.9,0,9-3.7,9.4-8.6c0.2-2.4,0.4-4.8,0.4-7.2C246.1,133,242,128.6,236.8,128.5z"/><path fill="#000000" d="M232.6,165.3c-4.9-1.9-10.4,0.5-12.3,5.4c-0.7,1.9-1.5,3.7-2.4,5.6c-2.2,4.8-0.1,10.4,4.6,12.6c1.3,0.6,2.6,0.9,4,0.9c3.6,0,7-2,8.6-5.5c1-2.2,2-4.4,2.8-6.6C239.8,172.7,237.4,167.2,232.6,165.3z"/><path fill="#000000" d="M200.2,53.1c3.1-4.2,2.2-10.1-2-13.3c-1.9-1.4-3.9-2.8-5.9-4.1c-4.4-2.8-10.3-1.6-13.1,2.8c-2.8,4.4-1.6,10.3,2.8,13.1c1.7,1.1,3.4,2.3,5,3.4c1.7,1.2,3.7,1.9,5.6,1.9C195.5,57,198.4,55.6,200.2,53.1z"/></g></g></g><g></g><g></g><g></g><g></g><g></g><g></g><g></g><g></g><g></g><g></g><g></g><g></g><g></g><g></g><g></g></g></g>
</svg>