<svg width="32" height="32" viewBox="0 0 32 32" fill="none" xmlns="http://www.w3.org/2000/svg">
<path fill-rule="evenodd" clip-rule="evenodd" d="M16.0001 18.8295L23.0708 25.9001C23.446 26.2753 23.9549 26.4861 24.4855 26.4861C25.0161 26.4861 25.5249 26.2753 25.9001 25.9001C26.2753 25.525 26.4861 25.0161 26.4861 24.4855C26.4861 23.9549 26.2753 23.446 25.9001 23.0708L18.8268 16.0001L25.8988 8.92948C26.0845 8.7437 26.2318 8.52317 26.3322 8.28048C26.4327 8.03778 26.4844 7.77767 26.4843 7.51501C26.4842 7.25234 26.4324 6.99226 26.3319 6.74961C26.2313 6.50696 26.0839 6.2865 25.8981 6.10081C25.7123 5.91512 25.4918 5.76785 25.2491 5.66738C25.0064 5.56692 24.7463 5.51525 24.4837 5.51531C24.221 5.51537 23.9609 5.56717 23.7183 5.66774C23.4756 5.76832 23.2551 5.9157 23.0695 6.10148L16.0001 13.1721L8.92946 6.10148C8.74505 5.91038 8.52443 5.75791 8.28048 5.65298C8.03652 5.54805 7.77411 5.49275 7.50855 5.49032C7.24299 5.48789 6.97961 5.53837 6.73377 5.63881C6.48793 5.73926 6.26456 5.88766 6.07669 6.07535C5.88881 6.26305 5.7402 6.48628 5.63953 6.73203C5.53885 6.97777 5.48812 7.24111 5.4903 7.50666C5.49248 7.77222 5.54753 8.03469 5.65223 8.27874C5.75693 8.5228 5.90919 8.74356 6.10012 8.92815L13.1735 16.0001L6.10146 23.0721C5.91053 23.2567 5.75827 23.4775 5.65357 23.7215C5.54886 23.9656 5.49382 24.2281 5.49164 24.4936C5.48945 24.7592 5.54018 25.0225 5.64086 25.2683C5.74154 25.514 5.89015 25.7372 6.07802 25.9249C6.26589 26.1126 6.48927 26.261 6.73511 26.3615C6.98094 26.4619 7.24433 26.5124 7.50988 26.51C7.77544 26.5075 8.03785 26.4522 8.28181 26.3473C8.52577 26.2424 8.74639 26.0899 8.93079 25.8988L16.0001 18.8295Z" fill="#09090B"/>
</svg>
